<?xml version="1.0" encoding="UTF-8" standalone="no"?>
<!-- Created with Inkscape (http://www.inkscape.org/) -->

<svg
   xmlns:dc="http://purl.org/dc/elements/1.1/"
   xmlns:cc="http://creativecommons.org/ns#"
   xmlns:rdf="http://www.w3.org/1999/02/22-rdf-syntax-ns#"
   xmlns:svg="http://www.w3.org/2000/svg"
   xmlns="http://www.w3.org/2000/svg"
   xmlns:sodipodi="http://sodipodi.sourceforge.net/DTD/sodipodi-0.dtd"
   xmlns:inkscape="http://www.inkscape.org/namespaces/inkscape"
   width="135.46666mm"
   height="135.46666mm"
   viewBox="0 0 135.46666 135.46666"
   version="1.1"
   id="svg2511"
   inkscape:version="0.92.4 (5da689c313, 2019-01-14)"
   sodipodi:docname="favicon.svg">
  <defs
     id="defs2505" />
  <sodipodi:namedview
     id="base"
     pagecolor="#ffffff"
     bordercolor="#666666"
     borderopacity="1.0"
     inkscape:pageopacity="0.0"
     inkscape:pageshadow="2"
     inkscape:zoom="0.49497475"
     inkscape:cx="912.02714"
     inkscape:cy="210.80241"
     inkscape:document-units="mm"
     inkscape:current-layer="layer1"
     showgrid="false"
     inkscape:window-width="1920"
     inkscape:window-height="1001"
     inkscape:window-x="-9"
     inkscape:window-y="-9"
     inkscape:window-maximized="1" />
  <metadata
     id="metadata2508">
    <rdf:RDF>
      <cc:Work
         rdf:about="">
        <dc:format>image/svg+xml</dc:format>
        <dc:type
           rdf:resource="http://purl.org/dc/dcmitype/StillImage" />
        <dc:title></dc:title>
      </cc:Work>
    </rdf:RDF>
  </metadata>
  <g
     inkscape:label="Capa 1"
     inkscape:groupmode="layer"
     id="layer1"
     transform="translate(-16.177387,-13.820239)">
    <g
       id="g3085">
      <rect
         style="fill:#e2e3e4;fill-opacity:1;stroke:none;stroke-width:0.07241178;stroke-linecap:round;stroke-linejoin:round;stroke-miterlimit:4;stroke-dasharray:none;stroke-opacity:1;paint-order:normal"
         id="rect2473"
         width="135.46666"
         height="135.46666"
         x="16.177387"
         y="13.820239"
         ry="44.634014" />
      <g
         id="g2485"
         transform="matrix(1.4145993,0,0,1.4145993,-1132.5775,423.87511)">
        <g
           style="fill:#2d2d37;fill-opacity:1"
           transform="matrix(0.80592878,0,0,0.80592878,325.10823,-397.27486)"
           id="g2483">
          <path
             sodipodi:nodetypes="ccsccccc"
             inkscape:connector-curvature="0"
             style="fill:#2d2d37;fill-opacity:1;stroke:none;stroke-width:0.50000131;stroke-linecap:round;stroke-linejoin:round;stroke-miterlimit:4;stroke-dasharray:none;stroke-opacity:1;paint-order:normal"
             d="m 709.27248,185.01299 c -6.16197,-18.7359 -23.53366,-31.92852 -44.3319,-31.92842 -25.92348,1.6e-4 -46.93859,21.01527 -46.93872,46.93875 -6e-5,12.71968 5.05922,23.78999 13.27525,32.24376 l 8.58995,-7.08593 c -6.59936,-6.43078 -10.33009,-15.21549 -10.33,-25.15783 10e-5,-19.55278 15.85074,-35.40342 35.40352,-35.40353 17.22653,-1.7e-4 31.57958,11.90213 34.7513,28.20095"
             id="path2475" />
          <g
             style="fill:#2d2d37;fill-opacity:1"
             transform="translate(-0.53453904,-132.56568)"
             id="g2481">
            <path
               style="fill:#2d2d37;fill-opacity:1;stroke:none;stroke-width:0.27908117;stroke-linecap:round;stroke-linejoin:round;stroke-miterlimit:4;stroke-dasharray:none;stroke-opacity:1;paint-order:normal"
               d="m 626.92812,356.17812 -2.91044,-1.9081 7.06101,-9.10134 c 0,0 -8.25215,-20.4092 3.97394,-35.32712 12.2261,-14.91791 40.71498,-16.46221 40.71498,-16.46221 l 21.49849,18.63054 -25.94849,20.8364 -37.6322,30.48148 -3.42949,-2.94885 z"
               id="path2477"
               inkscape:connector-curvature="0"
               sodipodi:nodetypes="ccczcccccc" />
            <path
               sodipodi:nodetypes="cccccc"
               inkscape:connector-curvature="0"
               id="path2479"
               d="m 709.80702,317.57867 -41.84733,34.15291 -8.32662,-10.27999 44.19254,-35.79525 c 0,0 -6.24944,-5.14883 0.77171,4.89784 0,0 -0.81664,-4.04811 5.2097,7.02449 z"
               style="fill:#2d2d37;fill-opacity:1;stroke:none;stroke-width:0.27908117;stroke-linecap:round;stroke-linejoin:round;stroke-miterlimit:4;stroke-dasharray:none;stroke-opacity:1;paint-order:normal" />
          </g>
        </g>
      </g>
    </g>
  </g>
</svg>
