<?xml version="1.0" encoding="UTF-8" standalone="no"?>
<!-- Created with Inkscape (http://www.inkscape.org/) -->

<svg
   xmlns:dc="http://purl.org/dc/elements/1.1/"
   xmlns:cc="http://creativecommons.org/ns#"
   xmlns:rdf="http://www.w3.org/1999/02/22-rdf-syntax-ns#"
   xmlns:svg="http://www.w3.org/2000/svg"
   xmlns="http://www.w3.org/2000/svg"
   xmlns:sodipodi="http://sodipodi.sourceforge.net/DTD/sodipodi-0.dtd"
   xmlns:inkscape="http://www.inkscape.org/namespaces/inkscape"
   width="63.235416mm"
   height="10.690217mm"
   viewBox="0 0 63.235416 10.690217"
   version="1.1"
   id="svg1857"
   inkscape:version="0.92.4 (5da689c313, 2019-01-14)"
   sodipodi:docname="trendify_light.svg">
  <defs
     id="defs1851" />
  <sodipodi:namedview
     id="base"
     pagecolor="#ffffff"
     bordercolor="#666666"
     borderopacity="1.0"
     inkscape:pageopacity="0.0"
     inkscape:pageshadow="2"
     inkscape:zoom="1.4"
     inkscape:cx="424.32362"
     inkscape:cy="-142.1915"
     inkscape:document-units="mm"
     inkscape:current-layer="layer1"
     showgrid="false"
     inkscape:window-width="1920"
     inkscape:window-height="1001"
     inkscape:window-x="-9"
     inkscape:window-y="-9"
     inkscape:window-maximized="1" />
  <metadata
     id="metadata1854">
    <rdf:RDF>
      <cc:Work
         rdf:about="">
        <dc:format>image/svg+xml</dc:format>
        <dc:type
           rdf:resource="http://purl.org/dc/dcmitype/StillImage" />
        <dc:title></dc:title>
      </cc:Work>
    </rdf:RDF>
  </metadata>
  <g
     inkscape:label="Capa 1"
     inkscape:groupmode="layer"
     id="layer1"
     transform="translate(-28.537003,-31.09844)">
    <g
       id="g1216"
       style="fill:#e2e3e4;fill-opacity:1"
       transform="matrix(0.5277585,0,0,0.5277585,-219.85516,143.05436)">
      <g
         id="flowRoot1173"
         style="font-style:normal;font-variant:normal;font-weight:bold;font-stretch:condensed;font-size:40px;line-height:1.25;font-family:Roboto;-inkscape-font-specification:'Roboto, Bold Condensed';font-variant-ligatures:normal;font-variant-caps:normal;font-variant-numeric:normal;font-feature-settings:normal;text-align:start;letter-spacing:0px;word-spacing:0px;writing-mode:lr-tb;text-anchor:start;fill:#e2e3e4;fill-opacity:1;stroke:none"
         transform="matrix(0.51786864,0,0,0.51786864,341.82102,657.69299)"
         aria-label="TRENDIFY">
        <path
           id="path1185"
           style="fill:#e2e3e4;fill-opacity:1"
           d="m 338.50586,-1674.8262 h -6.67969 v 24.1211 h -5.52734 v -24.1211 h -6.50391 v -4.3164 h 18.71094 z"
           inkscape:connector-curvature="0" />
        <path
           id="path1187"
           style="fill:#e2e3e4;fill-opacity:1"
           d="m 346.74805,-1662.1113 v 11.4062 h -5.50782 v -28.4179 h 8.51563 q 4.23828,0 6.66016,2.207 2.4414,2.207 2.4414,6.1523 0,2.2071 -1.03515,3.8282 -1.01563,1.621 -2.94922,2.5781 2.22656,0.7422 3.20312,2.4609 0.97656,1.7188 0.97656,4.2969 v 2.0703 q 0,1.1914 0.27344,2.5 0.27344,1.3086 0.97656,1.9141 v 0.4101 h -5.70312 q -0.68359,-0.625 -0.87891,-2.0312 -0.17578,-1.4258 -0.17578,-2.8321 v -1.9921 q 0,-2.168 -0.89844,-3.3594 -0.89843,-1.1914 -2.57812,-1.1914 z m 0,-4.2969 h 2.96875 q 1.77734,0 2.69531,-1.0547 0.9375,-1.0742 0.9375,-3.0273 0,-1.9922 -0.91797,-3.1641 -0.91797,-1.1719 -2.67578,-1.1719 h -3.00781 z"
           inkscape:connector-curvature="0" />
        <path
           id="path1189"
           style="fill:#e2e3e4;fill-opacity:1"
           d="m 377.54883,-1663.2637 h -8.69141 v 8.2617 h 10.41016 v 4.2969 h -15.91797 v -28.4375 h 15.87891 v 4.3164 h -10.3711 v 7.2657 h 8.69141 z"
           inkscape:connector-curvature="0" />
        <path
           id="path1191"
           style="fill:#e2e3e4;fill-opacity:1"
           d="m 402.95898,-1650.7051 h -5.50781 l -9.02344,-18.1445 -0.11718,0.02 v 18.125 h -5.50782 v -28.4375 h 5.50782 l 9.02343,18.1641 0.11719,-0.02 v -18.1446 h 5.50781 z"
           inkscape:connector-curvature="0" />
        <path
           id="path1193"
           style="fill:#e2e3e4;fill-opacity:1"
           d="m 407.33398,-1650.7051 v -28.4375 h 8.76954 q 4.45312,0 7.36328,3.3399 2.91015,3.3203 2.91015,8.5351 v 4.7071 q 0,5.2343 -2.91015,8.5546 -2.91016,3.3008 -7.36328,3.3008 z m 5.50782,-24.1211 v 19.8242 h 3.26172 q 2.1289,0 3.4375,-2.1093 1.30859,-2.1094 1.30859,-5.4492 v -4.7461 q 0,-3.3008 -1.30859,-5.4102 -1.3086,-2.1094 -3.4375,-2.1094 z"
           inkscape:connector-curvature="0" />
        <path
           id="path1195"
           style="fill:#e2e3e4;fill-opacity:1"
           d="m 436.02539,-1650.7051 h -5.48828 v -28.4375 h 5.48828 z"
           inkscape:connector-curvature="0" />
        <path
           id="path1197"
           style="fill:#e2e3e4;fill-opacity:1"
           d="m 455.30273,-1662.5996 h -9.02343 v 11.8945 h -5.50782 v -28.4375 h 16.25 v 4.3164 H 446.2793 v 7.9297 h 9.02343 z"
           inkscape:connector-curvature="0" />
        <path
           id="path1199"
           style="fill:#e2e3e4;fill-opacity:1"
           d="m 469.11133,-1666.7793 h 0.11719 l 4.90234,-12.3633 h 6.01562 l -8.30078,18.3008 v 10.1367 h -5.48828 v -10.4883 l -8.14453,-17.9492 h 6.01563 z"
           inkscape:connector-curvature="0" />
      </g>
      <g
         id="g1183"
         transform="matrix(0.21452241,0,0,0.21452241,343.49827,-244.80378)"
         style="fill:#e2e3e4;fill-opacity:1">
        <path
           id="path1175"
           d="m 709.27248,185.01299 c -6.16197,-18.7359 -23.53366,-31.92852 -44.3319,-31.92842 -25.92348,1.6e-4 -46.93859,21.01527 -46.93872,46.93875 -6e-5,12.71968 5.05922,23.78999 13.27525,32.24376 l 8.58995,-7.08593 c -6.59936,-6.43078 -10.33009,-15.21549 -10.33,-25.15783 10e-5,-19.55278 15.85074,-35.40342 35.40352,-35.40353 17.22653,-1.7e-4 31.57958,11.90213 34.7513,28.20095"
           style="fill:#e2e3e4;fill-opacity:1;stroke:none;stroke-width:0.50000131;stroke-linecap:round;stroke-linejoin:round;stroke-miterlimit:4;stroke-dasharray:none;stroke-opacity:1;paint-order:normal"
           inkscape:connector-curvature="0"
           sodipodi:nodetypes="ccsccccc" />
        <g
           id="g1181"
           transform="translate(-0.53453904,-132.56568)"
           style="fill:#e2e3e4;fill-opacity:1">
          <path
             sodipodi:nodetypes="ccccc"
             inkscape:connector-curvature="0"
             id="path1177"
             d="m 593.27776,379.2761 69.71323,-56.7098 8.32662,10.27999 -57.0075,46.17516 z"
             style="fill:#e2e3e4;fill-opacity:1;stroke:none;stroke-width:0.27908117;stroke-linecap:round;stroke-linejoin:round;stroke-miterlimit:4;stroke-dasharray:none;stroke-opacity:1;paint-order:normal" />
          <path
             style="fill:#e2e3e4;fill-opacity:1;stroke:none;stroke-width:0.27908117;stroke-linecap:round;stroke-linejoin:round;stroke-miterlimit:4;stroke-dasharray:none;stroke-opacity:1;paint-order:normal"
             d="m 748.89824,285.13281 -11.63019,10.21832 -69.30836,56.38045 -8.32662,-10.27999 56.56144,-45.81386 13.275,-10.78481 z"
             id="path1179"
             inkscape:connector-curvature="0"
             sodipodi:nodetypes="ccccccc" />
        </g>
      </g>
    </g>
  </g>
</svg>
